<mxfile host="app.diagrams.net" agent="Mozilla/5.0 (Windows NT 10.0; Win64; x64) AppleWebKit/537.36 (KHTML, like Gecko) Chrome/137.0.0.0 Safari/537.36" version="27.1.4">
  <diagram name="Page-1" id="eFNzFurzQVcpSB7QVeJ_">
    <mxGraphModel dx="1042" dy="622" grid="1" gridSize="10" guides="1" tooltips="1" connect="1" arrows="1" fold="1" page="1" pageScale="1" pageWidth="850" pageHeight="1100" math="0" shadow="0">
      <root>
        <mxCell id="0" />
        <mxCell id="1" parent="0" />
        <mxCell id="jG-YocDfNX3oSPz7e-pt-1" value="" style="rounded=0;whiteSpace=wrap;html=1;fillColor=none;dashed=1;dashPattern=1 4;" parent="1" vertex="1">
          <mxGeometry x="80" y="160" width="120" height="400" as="geometry" />
        </mxCell>
        <mxCell id="jG-YocDfNX3oSPz7e-pt-3" value="SOURCE" style="text;html=1;align=center;verticalAlign=middle;whiteSpace=wrap;rounded=0;fontSize=18;fillColor=default;" parent="1" vertex="1">
          <mxGeometry x="82" y="142" width="115" height="30" as="geometry" />
        </mxCell>
        <mxCell id="jG-YocDfNX3oSPz7e-pt-4" value="&lt;b&gt;&lt;font style=&quot;font-size: 24px;&quot; face=&quot;Helvetica&quot;&gt;Data Flow Diagram&lt;/font&gt;&lt;/b&gt;" style="text;html=1;whiteSpace=wrap;overflow=hidden;rounded=0;" parent="1" vertex="1">
          <mxGeometry x="10" width="360" height="40" as="geometry" />
        </mxCell>
        <mxCell id="7YZ28KgXfL-N5zU-XaqT-4" value="" style="edgeStyle=orthogonalEdgeStyle;rounded=0;orthogonalLoop=1;jettySize=auto;html=1;" parent="1" source="jG-YocDfNX3oSPz7e-pt-5" target="7YZ28KgXfL-N5zU-XaqT-3" edge="1">
          <mxGeometry relative="1" as="geometry" />
        </mxCell>
        <mxCell id="7YZ28KgXfL-N5zU-XaqT-7" style="edgeStyle=orthogonalEdgeStyle;rounded=0;orthogonalLoop=1;jettySize=auto;html=1;" parent="1" source="jG-YocDfNX3oSPz7e-pt-5" target="7YZ28KgXfL-N5zU-XaqT-5" edge="1">
          <mxGeometry relative="1" as="geometry" />
        </mxCell>
        <mxCell id="7YZ28KgXfL-N5zU-XaqT-8" style="edgeStyle=orthogonalEdgeStyle;rounded=0;orthogonalLoop=1;jettySize=auto;html=1;" parent="1" source="jG-YocDfNX3oSPz7e-pt-5" target="7YZ28KgXfL-N5zU-XaqT-6" edge="1">
          <mxGeometry relative="1" as="geometry" />
        </mxCell>
        <mxCell id="jG-YocDfNX3oSPz7e-pt-5" value="&lt;font style=&quot;font-size: 14px;&quot;&gt;&lt;b&gt;CRM&lt;/b&gt;&lt;/font&gt;" style="image;aspect=fixed;html=1;points=[];align=center;fontSize=12;image=img/lib/azure2/general/Folder_Blank.svg;" parent="1" vertex="1">
          <mxGeometry x="100.77" y="240" width="77.47" height="62.86" as="geometry" />
        </mxCell>
        <mxCell id="7YZ28KgXfL-N5zU-XaqT-12" value="" style="edgeStyle=orthogonalEdgeStyle;rounded=0;orthogonalLoop=1;jettySize=auto;html=1;" parent="1" source="jG-YocDfNX3oSPz7e-pt-15" target="7YZ28KgXfL-N5zU-XaqT-10" edge="1">
          <mxGeometry relative="1" as="geometry" />
        </mxCell>
        <mxCell id="7YZ28KgXfL-N5zU-XaqT-13" style="edgeStyle=orthogonalEdgeStyle;rounded=0;orthogonalLoop=1;jettySize=auto;html=1;" parent="1" source="jG-YocDfNX3oSPz7e-pt-15" target="7YZ28KgXfL-N5zU-XaqT-9" edge="1">
          <mxGeometry relative="1" as="geometry" />
        </mxCell>
        <mxCell id="7YZ28KgXfL-N5zU-XaqT-14" style="edgeStyle=orthogonalEdgeStyle;rounded=0;orthogonalLoop=1;jettySize=auto;html=1;entryX=0;entryY=0.5;entryDx=0;entryDy=0;" parent="1" source="jG-YocDfNX3oSPz7e-pt-15" target="7YZ28KgXfL-N5zU-XaqT-11" edge="1">
          <mxGeometry relative="1" as="geometry" />
        </mxCell>
        <mxCell id="jG-YocDfNX3oSPz7e-pt-15" value="&lt;font style=&quot;font-size: 14px;&quot;&gt;&lt;b&gt;ERP&lt;/b&gt;&lt;/font&gt;" style="image;aspect=fixed;html=1;points=[];align=center;fontSize=12;image=img/lib/azure2/general/Folder_Blank.svg;" parent="1" vertex="1">
          <mxGeometry x="101.27" y="410" width="77.47" height="62.87" as="geometry" />
        </mxCell>
        <mxCell id="7YZ28KgXfL-N5zU-XaqT-1" value="&lt;b&gt;&lt;font style=&quot;font-size: 14px;&quot;&gt;Bronze Layer&lt;/font&gt;&lt;/b&gt;" style="rounded=1;whiteSpace=wrap;html=1;fillColor=#ffe6cc;strokeColor=#d79b00;" parent="1" vertex="1">
          <mxGeometry x="240" y="142" width="160" height="30" as="geometry" />
        </mxCell>
        <mxCell id="7YZ28KgXfL-N5zU-XaqT-2" value="" style="rounded=1;whiteSpace=wrap;html=1;fillColor=none;strokeColor=#d79b00;" parent="1" vertex="1">
          <mxGeometry x="240" y="180" width="160" height="380" as="geometry" />
        </mxCell>
        <mxCell id="7YZ28KgXfL-N5zU-XaqT-23" style="edgeStyle=orthogonalEdgeStyle;rounded=0;orthogonalLoop=1;jettySize=auto;html=1;" parent="1" source="7YZ28KgXfL-N5zU-XaqT-3" target="7YZ28KgXfL-N5zU-XaqT-17" edge="1">
          <mxGeometry relative="1" as="geometry" />
        </mxCell>
        <mxCell id="7YZ28KgXfL-N5zU-XaqT-3" value="crm_sales_details" style="rounded=1;whiteSpace=wrap;html=1;fillColor=#ffe6cc;strokeColor=#d79b00;" parent="1" vertex="1">
          <mxGeometry x="260" y="210" width="120" height="30" as="geometry" />
        </mxCell>
        <mxCell id="7YZ28KgXfL-N5zU-XaqT-24" style="edgeStyle=orthogonalEdgeStyle;rounded=0;orthogonalLoop=1;jettySize=auto;html=1;" parent="1" source="7YZ28KgXfL-N5zU-XaqT-5" target="7YZ28KgXfL-N5zU-XaqT-18" edge="1">
          <mxGeometry relative="1" as="geometry" />
        </mxCell>
        <mxCell id="7YZ28KgXfL-N5zU-XaqT-5" value="crm_cust_info" style="rounded=1;whiteSpace=wrap;html=1;fillColor=#ffe6cc;strokeColor=#d79b00;" parent="1" vertex="1">
          <mxGeometry x="260" y="256.43" width="120" height="30" as="geometry" />
        </mxCell>
        <mxCell id="7YZ28KgXfL-N5zU-XaqT-25" style="edgeStyle=orthogonalEdgeStyle;rounded=0;orthogonalLoop=1;jettySize=auto;html=1;" parent="1" source="7YZ28KgXfL-N5zU-XaqT-6" target="7YZ28KgXfL-N5zU-XaqT-19" edge="1">
          <mxGeometry relative="1" as="geometry" />
        </mxCell>
        <mxCell id="7YZ28KgXfL-N5zU-XaqT-6" value="crm_prd_info" style="rounded=1;whiteSpace=wrap;html=1;fillColor=#ffe6cc;strokeColor=#d79b00;" parent="1" vertex="1">
          <mxGeometry x="260" y="302.86" width="120" height="30" as="geometry" />
        </mxCell>
        <mxCell id="7YZ28KgXfL-N5zU-XaqT-26" style="edgeStyle=orthogonalEdgeStyle;rounded=0;orthogonalLoop=1;jettySize=auto;html=1;" parent="1" source="7YZ28KgXfL-N5zU-XaqT-9" target="7YZ28KgXfL-N5zU-XaqT-20" edge="1">
          <mxGeometry relative="1" as="geometry" />
        </mxCell>
        <mxCell id="7YZ28KgXfL-N5zU-XaqT-9" value="erp_cust_az12" style="rounded=1;whiteSpace=wrap;html=1;fillColor=#ffe6cc;strokeColor=#d79b00;" parent="1" vertex="1">
          <mxGeometry x="260" y="380" width="120" height="30" as="geometry" />
        </mxCell>
        <mxCell id="7YZ28KgXfL-N5zU-XaqT-27" style="edgeStyle=orthogonalEdgeStyle;rounded=0;orthogonalLoop=1;jettySize=auto;html=1;" parent="1" source="7YZ28KgXfL-N5zU-XaqT-10" target="7YZ28KgXfL-N5zU-XaqT-21" edge="1">
          <mxGeometry relative="1" as="geometry" />
        </mxCell>
        <mxCell id="7YZ28KgXfL-N5zU-XaqT-10" value="erp_loc_a101" style="rounded=1;whiteSpace=wrap;html=1;fillColor=#ffe6cc;strokeColor=#d79b00;" parent="1" vertex="1">
          <mxGeometry x="260" y="426.43" width="120" height="30" as="geometry" />
        </mxCell>
        <mxCell id="7YZ28KgXfL-N5zU-XaqT-28" style="edgeStyle=orthogonalEdgeStyle;rounded=0;orthogonalLoop=1;jettySize=auto;html=1;" parent="1" source="7YZ28KgXfL-N5zU-XaqT-11" target="7YZ28KgXfL-N5zU-XaqT-22" edge="1">
          <mxGeometry relative="1" as="geometry" />
        </mxCell>
        <mxCell id="7YZ28KgXfL-N5zU-XaqT-11" value="erp_px_cat_g1v2" style="rounded=1;whiteSpace=wrap;html=1;fillColor=#ffe6cc;strokeColor=#d79b00;" parent="1" vertex="1">
          <mxGeometry x="260" y="472.86" width="120" height="30" as="geometry" />
        </mxCell>
        <mxCell id="7YZ28KgXfL-N5zU-XaqT-15" value="&lt;b&gt;&lt;font style=&quot;font-size: 14px;&quot;&gt;Silver Layer&lt;/font&gt;&lt;/b&gt;" style="rounded=1;whiteSpace=wrap;html=1;fillColor=#f5f5f5;strokeColor=#666666;fontColor=#333333;" parent="1" vertex="1">
          <mxGeometry x="440" y="142" width="160" height="30" as="geometry" />
        </mxCell>
        <mxCell id="7YZ28KgXfL-N5zU-XaqT-16" value="" style="rounded=1;whiteSpace=wrap;html=1;fillColor=none;strokeColor=#666666;fontColor=#333333;" parent="1" vertex="1">
          <mxGeometry x="440" y="180" width="160" height="380" as="geometry" />
        </mxCell>
        <mxCell id="7YZ28KgXfL-N5zU-XaqT-17" value="crm_sales_details" style="rounded=1;whiteSpace=wrap;html=1;fillColor=#f5f5f5;strokeColor=#666666;fontColor=#333333;" parent="1" vertex="1">
          <mxGeometry x="460" y="210" width="120" height="30" as="geometry" />
        </mxCell>
        <mxCell id="7YZ28KgXfL-N5zU-XaqT-18" value="crm_cust_info" style="rounded=1;whiteSpace=wrap;html=1;fillColor=#f5f5f5;strokeColor=#666666;fontColor=#333333;" parent="1" vertex="1">
          <mxGeometry x="460" y="256.43000000000006" width="120" height="30" as="geometry" />
        </mxCell>
        <mxCell id="7YZ28KgXfL-N5zU-XaqT-19" value="crm_prd_info" style="rounded=1;whiteSpace=wrap;html=1;fillColor=#f5f5f5;strokeColor=#666666;fontColor=#333333;" parent="1" vertex="1">
          <mxGeometry x="460" y="302.86" width="120" height="30" as="geometry" />
        </mxCell>
        <mxCell id="7YZ28KgXfL-N5zU-XaqT-20" value="erp_cust_az12" style="rounded=1;whiteSpace=wrap;html=1;fillColor=#f5f5f5;strokeColor=#666666;fontColor=#333333;" parent="1" vertex="1">
          <mxGeometry x="460" y="380" width="120" height="30" as="geometry" />
        </mxCell>
        <mxCell id="7YZ28KgXfL-N5zU-XaqT-21" value="erp_loc_a101" style="rounded=1;whiteSpace=wrap;html=1;fillColor=#f5f5f5;strokeColor=#666666;fontColor=#333333;" parent="1" vertex="1">
          <mxGeometry x="460" y="426.43000000000006" width="120" height="30" as="geometry" />
        </mxCell>
        <mxCell id="7YZ28KgXfL-N5zU-XaqT-22" value="erp_px_cat_g1v2" style="rounded=1;whiteSpace=wrap;html=1;fillColor=#f5f5f5;strokeColor=#666666;fontColor=#333333;" parent="1" vertex="1">
          <mxGeometry x="460" y="472.86" width="120" height="30" as="geometry" />
        </mxCell>
        <mxCell id="Gs7tuqhRl1njCk7hECFx-1" value="&lt;b&gt;&lt;font style=&quot;font-size: 14px;&quot;&gt;Gold Layer&lt;/font&gt;&lt;/b&gt;" style="rounded=1;whiteSpace=wrap;html=1;fillColor=#fff2cc;strokeColor=#d6b656;" vertex="1" parent="1">
          <mxGeometry x="620" y="142" width="160" height="30" as="geometry" />
        </mxCell>
        <mxCell id="Gs7tuqhRl1njCk7hECFx-2" value="" style="rounded=1;whiteSpace=wrap;html=1;fillColor=none;strokeColor=#d6b656;" vertex="1" parent="1">
          <mxGeometry x="620" y="180" width="160" height="380" as="geometry" />
        </mxCell>
        <mxCell id="Gs7tuqhRl1njCk7hECFx-3" value="fact_sales" style="rounded=1;whiteSpace=wrap;html=1;fillColor=#fff2cc;strokeColor=#d6b656;" vertex="1" parent="1">
          <mxGeometry x="640" y="226.43" width="120" height="30" as="geometry" />
        </mxCell>
        <mxCell id="Gs7tuqhRl1njCk7hECFx-4" value="dim_customers" style="rounded=1;whiteSpace=wrap;html=1;fillColor=#fff2cc;strokeColor=#d6b656;" vertex="1" parent="1">
          <mxGeometry x="640" y="340.00000000000006" width="120" height="30" as="geometry" />
        </mxCell>
        <mxCell id="Gs7tuqhRl1njCk7hECFx-5" value="dim_products" style="rounded=1;whiteSpace=wrap;html=1;fillColor=#fff2cc;strokeColor=#d6b656;" vertex="1" parent="1">
          <mxGeometry x="640" y="426.43" width="120" height="30" as="geometry" />
        </mxCell>
        <mxCell id="Gs7tuqhRl1njCk7hECFx-9" value="" style="endArrow=classic;html=1;rounded=0;exitX=1;exitY=0.25;exitDx=0;exitDy=0;" edge="1" parent="1" source="7YZ28KgXfL-N5zU-XaqT-17">
          <mxGeometry width="50" height="50" relative="1" as="geometry">
            <mxPoint x="590" y="296.43" as="sourcePoint" />
            <mxPoint x="640" y="246.43" as="targetPoint" />
          </mxGeometry>
        </mxCell>
        <mxCell id="Gs7tuqhRl1njCk7hECFx-10" value="" style="endArrow=classic;html=1;rounded=0;exitX=1;exitY=0.25;exitDx=0;exitDy=0;entryX=0;entryY=0.5;entryDx=0;entryDy=0;" edge="1" parent="1" target="Gs7tuqhRl1njCk7hECFx-4">
          <mxGeometry width="50" height="50" relative="1" as="geometry">
            <mxPoint x="580" y="274.43" as="sourcePoint" />
            <mxPoint x="640" y="302.86" as="targetPoint" />
          </mxGeometry>
        </mxCell>
        <mxCell id="Gs7tuqhRl1njCk7hECFx-11" value="" style="endArrow=classic;html=1;rounded=0;exitX=1;exitY=0.5;exitDx=0;exitDy=0;entryX=0;entryY=0.5;entryDx=0;entryDy=0;" edge="1" parent="1" source="7YZ28KgXfL-N5zU-XaqT-20" target="Gs7tuqhRl1njCk7hECFx-4">
          <mxGeometry width="50" height="50" relative="1" as="geometry">
            <mxPoint x="600" y="350" as="sourcePoint" />
            <mxPoint x="630" y="340" as="targetPoint" />
          </mxGeometry>
        </mxCell>
        <mxCell id="Gs7tuqhRl1njCk7hECFx-12" value="" style="endArrow=classic;html=1;rounded=0;exitX=1;exitY=0.25;exitDx=0;exitDy=0;entryX=0;entryY=0.75;entryDx=0;entryDy=0;" edge="1" parent="1" source="7YZ28KgXfL-N5zU-XaqT-21" target="Gs7tuqhRl1njCk7hECFx-4">
          <mxGeometry width="50" height="50" relative="1" as="geometry">
            <mxPoint x="620" y="380" as="sourcePoint" />
            <mxPoint x="680" y="408.43" as="targetPoint" />
          </mxGeometry>
        </mxCell>
        <mxCell id="Gs7tuqhRl1njCk7hECFx-13" value="" style="endArrow=classic;html=1;rounded=0;exitX=1;exitY=0.25;exitDx=0;exitDy=0;entryX=0;entryY=0.75;entryDx=0;entryDy=0;" edge="1" parent="1" target="Gs7tuqhRl1njCk7hECFx-5">
          <mxGeometry width="50" height="50" relative="1" as="geometry">
            <mxPoint x="580" y="314.72" as="sourcePoint" />
            <mxPoint x="640" y="395.29" as="targetPoint" />
          </mxGeometry>
        </mxCell>
        <mxCell id="Gs7tuqhRl1njCk7hECFx-14" value="" style="endArrow=classic;html=1;rounded=0;exitX=1;exitY=0.5;exitDx=0;exitDy=0;entryX=0;entryY=0.5;entryDx=0;entryDy=0;" edge="1" parent="1" source="7YZ28KgXfL-N5zU-XaqT-22" target="Gs7tuqhRl1njCk7hECFx-5">
          <mxGeometry width="50" height="50" relative="1" as="geometry">
            <mxPoint x="680" y="480" as="sourcePoint" />
            <mxPoint x="740" y="560.5699999999999" as="targetPoint" />
          </mxGeometry>
        </mxCell>
      </root>
    </mxGraphModel>
  </diagram>
</mxfile>
